#!OML:ASF H:\Terrain\Patient Classification 1\Walking\liu\liu.ASF
:FULLY-SPECIFIED
:DEGREES
267
root 9.37252 16.9961 16.7466 8.09722 6.73055 4.38121
lowerback -8.68864 -3.98233 -6.91888
upperback -0.890304 -4.71927 1.89214
thorax 4.66191 -2.49234 5.25351
lowerneck -24.0451 -1.26601 -10.3459
upperneck 20.2194 -0.184147 8.51277
head 10.457 0.169178 4.77501
rclavicle 3.19049e-014 1.19271e-014
rhumerus -45.8088 7.18895 -84.4964
rradius 22.1994
rwrist -4.99902
rhand -27.9663 -26.0437
rfingers 7.12502
rthumb -1.35338 -56.0192
lclavicle 3.19049e-014 1.19271e-014
lhumerus -6.24752 -25.5403 85.4475
lradius 33.2533
lwrist 6.82614
lhand -16.1543 -26.9787
lfingers 7.12502
lthumb 10.0513 2.76125
rfemur -43.0931 15.689 7.42278
rtibia 25.4347
rfoot -29.4909 -16.4729
rtoes -21.1054
lfemur 12.9058 3.26938 -28.409
ltibia 2.54444e-014
lfoot -13.7279 -2.66456
ltoes -1.57708
268
root 9.36007 16.9696 16.955 8.22246 6.58126 4.432
lowerback -8.64871 -4.004 -7.17263
upperback -1.04901 -4.7327 1.95384
thorax 4.50024 -2.49483 5.46763
lowerneck -24.2568 -1.24469 -10.0454
upperneck 20.5514 -0.11357 7.96504
head 10.6096 0.153893 4.54726
rclavicle 4.46272e-014 1.19271e-014
rhumerus -46.1796 6.52513 -83.8002
rradius 21.4902
rwrist -3.2579
rhand -26.1477 -24.0868
rfingers 7.12502
rthumb 0.403056 -54.0662
lclavicle 4.46272e-014 1.19271e-014
lhumerus -6.11395 -25.3547 85.4323
lradius 33.8445
lwrist 7.6019
lhand -16.0363 -27.0669
lfingers 7.12502
lthumb 10.1651 2.66754
rfemur -43.1057 16.0527 7.60738
rtibia 25.3125
rfoot -28.8208 -16.867
rtoes -19.5973
lfemur 13.5767 3.76007 -28.0943
ltibia 1.90833e-014
lfoot -13.4302 -3.48539
ltoes 0.341439
269
root 9.35466 16.9281 17.1706 8.27686 6.32143 4.71356
lowerback -8.65092 -4.00877 -7.54942
upperback -1.15425 -4.70182 1.87888
thorax 4.40965 -2.47898 5.60877
lowerneck -24.1231 -1.05165 -9.83209
upperneck 20.5804 0.0818686 7.89135
head 10.5749 0.249173 4.51276
rclavicle -3.00165e-014 -1.90833e-014
rhumerus -46.4481 5.73292 -83.0619
rradius 20.6574
rwrist -1.75158
rhand -24.9402 -20.6458
rfingers 7.12502
rthumb 1.56929 -50.6198
lclavicle -3.00165e-014 -1.90833e-014
lhumerus -6.15603 -24.9354 85.4652
lradius 34.4593
lwrist 7.95306
lhand -17.4747 -27.2695
lfingers 7.12502
lthumb 8.77729 2.52799
rfemur -42.5664 11.9883 10.2194
rtibia 25.4851
rfoot -25.2032 -12.6739
rtoes -16.6774
lfemur 14.3908 4.3455 -28.0971
ltibia -1.90833e-014
lfoot -13.0349 -4.07866
ltoes 0.808248
270
root 9.35311 16.8918 17.382 8.24785 6.08051 4.97877
lowerback -8.69958 -4.00878 -7.85689
upperback -1.08646 -4.6643 1.818
thorax 4.52203 -2.47132 5.71793
lowerneck -24.4041 -1.1146 -10.0144
upperneck 20.7828 0.0138278 8.15735
head 10.7069 0.237201 4.64461
rclavicle -4.2689e-014 2.54444e-014
rhumerus -46.3748 4.92029 -82.2181
rradius 19.8663
rwrist -0.243086
rhand -23.4984 -20.719
rfingers 7.12502
rthumb 2.96181 -50.6781
lclavicle -4.2689e-014 2.54444e-014
lhumerus -5.9843 -24.3777 85.4789
lradius 35.0444
lwrist 8.11935
lhand -19.7183 -27.6162
lfingers 7.12502
lthumb 6.61174 2.26057
rfemur -42.1299 8.5238 12.4736
rtibia 25.9455
rfoot -22.2102 -9.41691
rtoes -15.0993
lfemur 15.2111 4.92801 -28.1092
ltibia 2.8625e-014
lfoot -12.5533 -4.43911
ltoes -0.0131892
271
root 9.34246 16.8304 17.5932 8.14628 5.88621 5.24442
lowerback -8.62137 -3.97589 -8.25824
upperback -0.966698 -4.58443 1.78644
thorax 4.62126 -2.44694 5.9234
lowerneck -24.9846 -1.30364 -10.2817
upperneck 21.1605 -0.14476 8.31687
head 10.9703 0.164334 4.74973
rclavicle -2.33572e-015 2.3059e-014
rhumerus -46.288 4.01078 -81.3626
rradius 19.3385
rwrist 1.28771
rhand -22.288 -22.6674
rfingers 7.12502
rthumb 4.13062 -52.6071
lclavicle -2.33572e-015 2.3059e-014
lhumerus -5.67628 -24.3014 85.4451
lradius 35.6228
lwrist 8.65164
lhand -19.1923 -27.9704
lfingers 7.12502
lthumb 7.11953 1.88986
rfemur -41.7959 6.07731 14.1579
rtibia 26.6219
rfoot -20.1245 -7.25296
rtoes -16.6562
lfemur 16.1449 5.45724 -28.0235
ltibia 3.18055e-014
lfoot -12.0268 -5.17036
ltoes 1.15176
272
root 9.32543 16.761 17.8126 7.96002 5.61574 5.23413
lowerback -8.31134 -3.9037 -8.34772
upperback -1.20067 -4.5107 1.71775
thorax 4.1889 -2.38672 5.93778
lowerneck -24.4439 -1.10049 -9.9688
upperneck 21.2974 -0.0224074 8.25121
head 10.9075 0.22783 4.68734
rclavicle 2.17918e-014 -1.11319e-014
rhumerus -46.7857 2.71668 -80.3726
rradius 18.5735
rwrist 3.39252
rhand -21.4039 -23.5657
rfingers 7.12502
rthumb 4.98439 -53.4871
lclavicle 2.17918e-014 -1.11319e-014
lhumerus -6.43404 -24.5235 85.5713
lradius 36.5048
lwrist 9.56837
lhand -17.5508 -28.0282
lfingers 7.12502
lthumb 8.70381 1.77237
rfemur -41.5604 4.91318 15.4628
rtibia 27.6075
rfoot -18.7193 -5.60293
rtoes -19.091
lfemur 17.2715 6.07942 -27.564
ltibia -4.13472e-014
lfoot -11.6461 -6.09201
ltoes 3.10494
273
root 9.31438 16.7167 18.0392 7.64923 5.49197 4.68711
lowerback -7.94335 -3.89825 -7.81989
upperback -1.50879 -4.59428 1.83495
thorax 3.64124 -2.39112 5.78459
lowerneck -23.4288 -0.844275 -9.91171
upperneck 21.0706 0.181839 8.39915
head 10.6134 0.334468 4.73653
rclavicle -2.33324e-014 7.95139e-016
rhumerus -47.4281 1.90142 -79.429
rradius 17.7918
rwrist 5.2859
rhand -20.3499 -24.1428
rfingers 7.12502
rthumb 6.002 -54.0377
lclavicle -2.33324e-014 7.95139e-016
lhumerus -7.71472 -24.3477 85.8878
lradius 37.5383
lwrist 10.3757
lhand -17.2798 -27.9847
lfingers 7.12502
lthumb 8.96534 1.80484
rfemur -41.1858 4.43642 16.9118
rtibia 28.779
rfoot -17.1838 -4.25174
rtoes -19.5197
lfemur 18.5424 6.62804 -26.5583
ltibia -1.27222e-014
lfoot -11.3536 -6.53041
ltoes 0.506928
274
root 9.31045 16.691 18.2743 7.38744 5.61672 4.45843
lowerback -7.88335 -4.0161 -7.6077
upperback -1.47546 -4.77703 1.93485
thorax 3.66399 -2.4823 5.74792
lowerneck -23.2258 -0.724485 -10.0679
upperneck 20.9084 0.357868 8.52743
head 10.4964 0.418407 4.82618
rclavicle -6.4605e-015 1.59028e-015
rhumerus -47.7833 2.18552 -79.3234
rradius 17.6438
rwrist 5.77668
rhand -20.1367 -25.1718
rfingers 7.12502
rthumb 6.20786 -55.0608
lclavicle -6.4605e-015 1.59028e-015
lhumerus -8.22767 -24.1703 85.9844
lradius 38.3764
lwrist 11.086
lhand -17.4657 -28.024
lfingers 7.12502
lthumb 8.78599 1.77315
rfemur -40.7387 3.9495 17.7954
rtibia 29.9734
rfoot -15.0704 -3.06671
rtoes -19.9019
lfemur 19.7098 6.89913 -25.9443
ltibia 9.54166e-015
lfoot -10.7552 -6.56808
ltoes -5.59869
275
root 9.30376 16.6887 18.5159 7.22726 5.66268 4.59819
lowerback -8.15776 -4.07015 -7.80217
upperback -1.23678 -4.80312 1.90105
thorax 4.08565 -2.52034 5.79243
lowerneck -23.7323 -0.704001 -9.92508
upperneck 21.2308 0.420445 8.35247
head 10.702 0.438232 4.7693
rclavicle -4.38569e-014 0
rhumerus -47.7868 1.89426 -78.9732
rradius 17.4525
rwrist 6.62884
rhand -20.3518 -24.6436
rfingers 7.12502
rthumb 6.00021 -54.5387
lclavicle -4.38569e-014 0
lhumerus -7.97982 -24.8652 85.7994
lradius 38.7949
lwrist 12.1934
lhand -17.5591 -27.9269
lfingers 7.12502
lthumb 8.69587 1.87402
rfemur -40.5525 3.2022 18.2616
rtibia 31.1134
rfoot -12.3455 -1.66121
rtoes -20.902
lfemur 20.675 7.1835 -25.6751
ltibia -1.59028e-014
lfoot -9.49845 -6.77672
ltoes -9.14036
276
root 9.29104 16.6868 18.7568 7.01408 5.72072 4.45407
lowerback -8.423 -4.07779 -7.77193
upperback -0.964491 -4.79131 1.97092
thorax 4.52338 -2.53938 5.82525
lowerneck -24.0997 -0.759323 -9.9133
upperneck 21.3292 0.424987 8.15386
head 10.807 0.418993 4.70484
rclavicle -1.78658e-014 1.59028e-015
rhumerus -47.5796 0.816819 -77.9293
rradius 17.0904
rwrist 8.2654
rhand -20.0279 -23.8407
rfingers 7.12502
rthumb 6.3129 -53.7267
lclavicle -1.78658e-014 1.59028e-015
lhumerus -7.72592 -25.4039 85.7156
lradius 39.2371
lwrist 12.9735
lhand -17.1511 -27.8749
lfingers 7.12502
lthumb 9.08955 1.90926
rfemur -40.5536 3.45864 18.4568
rtibia 32.205
rfoot -10.1445 -1.11595
rtoes -21.3846
lfemur 21.6909 7.47029 -25.0517
ltibia -2.22639e-014
lfoot -8.0433 -7.05802
ltoes -10.3889
277
root 9.27908 16.6788 18.9913 6.65577 5.94996 4.07498
lowerback -8.25498 -4.11138 -7.40257
upperback -0.877527 -4.88459 2.03562
thorax 4.511 -2.58211 5.67884
lowerneck -23.9437 -0.850051 -10.1961
upperneck 21.2205 0.342159 8.33495
head 10.7458 0.38049 4.80016
rclavicle -2.95692e-014 1.66979e-014
rhumerus -47.8216 0.400113 -77.5269
rradius 16.9772
rwrist 8.78819
rhand -20.0149 -24.2382
rfingers 7.12502
rthumb 6.32548 -54.1238
lclavicle -2.95692e-014 1.66979e-014
lhumerus -8.37131 -25.0725 85.9083
lradius 40.2593
lwrist 12.9785
lhand -17.0491 -28.1232
lfingers 7.12502
lthumb 9.18799 1.65666
rfemur -40.3618 3.68547 18.7988
rtibia 33.2179
rfoot -8.1696 -0.570373
rtoes -21.0024
lfemur 22.8364 7.61283 -24.1536
ltibia -3.18055e-015
lfoot -6.35522 -7.14758
ltoes -10.6593
